<svg xmlns="http://www.w3.org/2000/svg" width="26.165" height="21.398" viewBox="0 0 26.165 21.398"><defs><style>.a{fill:#707070;}</style></defs><path class="a" d="M3945.964,231.674H3944.4a8.117,8.117,0,0,1-5.782-2.4l-1.875-1.861,2.654-2.843,1.961,1.946a4.272,4.272,0,0,0,3.042,1.266h1.562v-2.531l5.305,4.539-5.305,4.539Zm-19.369.919h-1.49V228.7h1.49a4.267,4.267,0,0,0,3.015-1.24l9.009-9.651a8.115,8.115,0,0,1,5.783-2.4h1.562v-2.481l5.305,4.539-5.305,4.539V219.3H3944.4a4.263,4.263,0,0,0-3.016,1.24l-9.01,9.651a8.11,8.11,0,0,1-5.759,2.4Zm3.042-12.235a4.267,4.267,0,0,0-3.042-1.266h-1.49V215.2h1.49a8.113,8.113,0,0,1,5.781,2.4l2.424,2.406-2.654,2.842Z" transform="translate(-3925.105 -212.932)"/></svg>