<svg xmlns="http://www.w3.org/2000/svg" width="24.6" height="24.64" viewBox="0 0 24.6 24.64"><defs><style>.a{fill:#707070;}</style></defs><path class="a" d="M3929.623,376.582a12.286,12.286,0,1,1,8.7,3.608A12.248,12.248,0,0,1,3929.623,376.582Zm-1.663-8.712a10.36,10.36,0,1,0,10.36-10.37A10.377,10.377,0,0,0,3927.96,367.87Zm9.71,8.43a.65.65,0,1,1,.65.65A.65.65,0,0,1,3937.67,376.3Zm.2-7.974a.547.547,0,0,1-.194-.454v-6.483h1.295v6.224l4.369,4.376-.907.908Zm8.22-.455a.65.65,0,1,1,.649.65A.65.65,0,0,1,3946.09,367.87Zm-16.83,0a.65.65,0,1,1,.649.65A.65.65,0,0,1,3929.26,367.87Zm8.41-8.431a.65.65,0,1,1,.65.65A.65.65,0,0,1,3937.67,359.44Z" transform="translate(-3926.02 -355.55)"/></svg>