<svg xmlns="http://www.w3.org/2000/svg" width="22.989" height="26.065" viewBox="0 0 22.989 26.065"><defs><style>.a{fill:#707070;}</style></defs><path class="a" d="M3931.85,644.969a.972.972,0,0,1,0-1.945h4.855a.972.972,0,0,1,0,1.945Zm11.748-3.081-2.945-1.134-.453-.194a1.961,1.961,0,0,1-1.23-1.816v-1.555a1.945,1.945,0,0,0-1.941-1.946h-6.021a3.867,3.867,0,0,1-3.56-2.334,10.119,10.119,0,0,1-.776-3.891,9.73,9.73,0,0,1,4.757-8.753,11.606,11.606,0,0,1,10.907,0,9.736,9.736,0,0,1,4.758,8.753v.163l2.232,3.891a1.575,1.575,0,0,1,.207,1.546,1.267,1.267,0,0,1-.983.723h-1.424v4.118a2.253,2.253,0,0,1-.162.94,2.588,2.588,0,0,1-3.366,1.491ZM3931.37,629.08a3.561,3.561,0,1,0,3.561-3.571A3.569,3.569,0,0,0,3931.37,629.08Zm11.81,0a.97.97,0,1,0,.97-.97A.971.971,0,0,0,3943.179,629.08Zm-11.329,12.646a.972.972,0,0,1,0-1.945h4.855a.972.972,0,0,1,0,1.945Zm.162-12.643h2.913V632A2.925,2.925,0,0,1,3932.012,629.083Zm2.913,0v-2.918a2.9,2.9,0,0,1,2.912,2.918Z" transform="translate(-3926.667 -618.904)"/></svg>