<svg xmlns="http://www.w3.org/2000/svg" width="29.55" height="23.291" viewBox="0 0 29.55 23.291"><defs><style>.a{fill:#707070;}</style></defs><path class="a" d="M3944.69,329.081l-.9-.878a4.783,4.783,0,0,1-6.07-.614l-2.271-2.292,6.813-6.878,2.271,2.293a4.9,4.9,0,0,1,.619,6.112l.879.858a6.681,6.681,0,0,0,4.69,1.915h1.057v1.945H3950.7A8.591,8.591,0,0,1,3944.69,329.081Zm-9.941-6.9-1.817-1.834-1.135,1.146-2.269-2.294a4.9,4.9,0,0,1-.608-6.127l-.765-.8a6.759,6.759,0,0,0-4.851-2.075h-1.075v-1.946h1.075a8.68,8.68,0,0,1,6.233,2.669l.745.778a4.784,4.784,0,0,1,6.056.625l2.271,2.292-1.135,1.146,1.817,1.834a.977.977,0,0,1,0,1.364.956.956,0,0,1-1.363.012l-1.816-1.834-1.817,1.834,1.817,1.834a.98.98,0,0,1,0,1.365.958.958,0,0,1-1.363.011Z" transform="translate(-3922.229 -308.252)"/></svg>