<svg xmlns="http://www.w3.org/2000/svg" width="77" height="77" viewBox="0 0 77 77"><defs><style>.a{fill:#707070;}</style></defs><g transform="translate(0 25.667)"><path class="a" d="M47.483,179.25H46.072a1.263,1.263,0,0,1-1.188-.829c-.157-.411-.325-.812-.506-1.21a1.265,1.265,0,0,1,.257-1.432l1.006-1.007a3.859,3.859,0,0,0-.006-5.44L42.007,165.7a3.859,3.859,0,0,0-5.441,0l-1.006,1a1.271,1.271,0,0,1-1.432.257c-.4-.181-.8-.349-1.211-.513a1.262,1.262,0,0,1-.833-1.191V163.85a3.85,3.85,0,0,0-3.85-3.85H23.1a3.85,3.85,0,0,0-3.85,3.85v1.412a1.263,1.263,0,0,1-.829,1.188c-.411.157-.812.325-1.21.506a1.269,1.269,0,0,1-1.432-.257l-1.007-1.006a3.859,3.859,0,0,0-5.44,0L5.7,169.331a3.859,3.859,0,0,0,0,5.441l1,1.006a1.265,1.265,0,0,1,.257,1.432c-.181.4-.349.8-.507,1.211a1.261,1.261,0,0,1-1.2.828H3.85A3.85,3.85,0,0,0,0,183.1v5.133a3.85,3.85,0,0,0,3.85,3.85H5.262a1.263,1.263,0,0,1,1.188.829c.157.411.325.812.506,1.21a1.265,1.265,0,0,1-.257,1.432l-1.006,1.007a3.859,3.859,0,0,0,0,5.44l3.627,3.627a3.859,3.859,0,0,0,5.441,0l1.006-1a1.271,1.271,0,0,1,1.432-.257c.4.181.8.349,1.211.513a1.262,1.262,0,0,1,.839,1.191v1.412a3.85,3.85,0,0,0,3.85,3.85h5.133a3.85,3.85,0,0,0,3.85-3.85v-1.412a1.263,1.263,0,0,1,.829-1.188c.411-.157.812-.325,1.21-.506a1.269,1.269,0,0,1,1.432.257l1.007,1.006a3.86,3.86,0,0,0,5.44-.006l3.627-3.627a3.859,3.859,0,0,0,0-5.441l-1-1.006a1.265,1.265,0,0,1-.257-1.432c.181-.4.349-.8.513-1.211a1.262,1.262,0,0,1,1.191-.833h1.412a3.85,3.85,0,0,0,3.85-3.85V183.1A3.85,3.85,0,0,0,47.483,179.25Zm1.283,8.983a1.283,1.283,0,0,1-1.283,1.283H46.072A3.863,3.863,0,0,0,42.478,192q-.2.539-.441,1.061a3.861,3.861,0,0,0,.77,4.307l1,1a1.283,1.283,0,0,1,0,1.815h0l-3.627,3.627a1.283,1.283,0,0,1-1.815,0l-1.006-1a3.858,3.858,0,0,0-4.307-.77c-.348.158-.7.305-1.059.441a3.862,3.862,0,0,0-2.481,3.591v1.412a1.283,1.283,0,0,1-1.283,1.283H23.1a1.283,1.283,0,0,1-1.283-1.283v-1.412a3.863,3.863,0,0,0-2.482-3.593q-.539-.2-1.061-.441a3.863,3.863,0,0,0-4.307.77l-1,1a1.283,1.283,0,0,1-1.815,0h0l-3.627-3.623a1.283,1.283,0,0,1,0-1.815l1-1.006a3.861,3.861,0,0,0,.77-4.307c-.158-.348-.305-.7-.441-1.059a3.862,3.862,0,0,0-3.591-2.485H3.85a1.283,1.283,0,0,1-1.283-1.283V183.1a1.283,1.283,0,0,1,1.283-1.283H5.262a3.863,3.863,0,0,0,3.593-2.482q.2-.539.441-1.061a3.862,3.862,0,0,0-.77-4.307l-1.009-1a1.283,1.283,0,0,1,0-1.815h0l3.627-3.627a1.283,1.283,0,0,1,1.815,0l1.006,1a3.858,3.858,0,0,0,4.307.77c.348-.158.7-.305,1.059-.441a3.861,3.861,0,0,0,2.486-3.591V163.85a1.283,1.283,0,0,1,1.283-1.283h5.133a1.283,1.283,0,0,1,1.283,1.283v1.412A3.863,3.863,0,0,0,32,168.855q.539.2,1.061.441a3.858,3.858,0,0,0,4.307-.77l1-1a1.291,1.291,0,0,1,1.816,0l3.627,3.627a1.283,1.283,0,0,1,0,1.815l-1,1.006a3.862,3.862,0,0,0-.77,4.307c.158.348.305.7.441,1.059a3.862,3.862,0,0,0,3.591,2.481h1.412a1.283,1.283,0,0,1,1.283,1.283v5.133Z" transform="translate(0 -160)"/></g><g transform="translate(14.11 39.783)"><path class="a" d="M111.04,259.037c-.013-.308-.035-.615-.072-.92-.041-.329-.09-.655-.158-.974-.045-.209-.1-.416-.16-.624q-.108-.4-.243-.782c-.063-.178-.128-.355-.2-.531a11.429,11.429,0,0,0-.566-1.2c-.017-.03-.027-.062-.044-.091a11.385,11.385,0,0,0-1.155-1.682c-.037-.046-.08-.09-.118-.135-.177-.209-.359-.412-.551-.606-.1-.1-.205-.2-.311-.3-.128-.119-.257-.237-.385-.35q-.234-.2-.476-.393l-.21-.157A11.469,11.469,0,0,0,99.515,248c-.128,0-.257.019-.385.024-.273.008-.548.023-.824.051-.145.015-.291.032-.436.053a11.762,11.762,0,0,0-1.244.232,11.556,11.556,0,0,0,.009,22.38.3.3,0,0,1,.064.012,12.228,12.228,0,0,0,1.345.257c.3.037.6.045.9.059.2.01.385.04.594.04.366,0,.746-.024,1.133-.063a1.254,1.254,0,0,0,.128-.017c.312-.035.628-.081.95-.145.128-.024.248-.056.371-.085.226-.053.45-.108.681-.176.18-.054.354-.117.53-.178s.358-.128.54-.2.335-.149.5-.226c.216-.1.43-.2.642-.312h.008a15.189,15.189,0,0,0,3.289-2.375,4.041,4.041,0,0,0,.688-.842,13.7,13.7,0,0,0,1.933-5.275c.036-.248.068-.5.087-.748.018-.232.031-.463.036-.694,0-.073.01-.142.01-.216C111.065,259.378,111.047,259.211,111.04,259.037Zm-2.558.841c0,.107-.009.213-.015.318-.023.311-.063.621-.115.933a9,9,0,0,1-4.51,6.288c-.159.083-.316.162-.472.234l-.107.051a9.269,9.269,0,0,1-2.341.708c-.056.009-.114.019-.172.027-.16.023-.318.042-.475.056-.207.018-.415.028-.626.032H99.38a9.013,9.013,0,0,1-.909-.056l-.154-.018a9.5,9.5,0,0,1-1.048-.2,8.983,8.983,0,0,1-.009-17.4h0a9.293,9.293,0,0,1,2.255-.282,8.867,8.867,0,0,1,1.1.074c.1.012.194.029.29.044.277.044.552.1.823.168.089.023.177.044.264.068a9.063,9.063,0,0,1,1.957.824c.1.058.2.118.293.178.2.128.4.257.593.4.1.076.209.15.309.231a9.259,9.259,0,0,1,.723.642c.091.092.175.194.263.29.148.16.291.325.429.5.095.119.186.243.276.367.128.185.257.377.372.572.064.107.128.21.194.32a8.8,8.8,0,0,1,.441.941c.051.128.095.257.141.385.083.236.155.475.218.716.032.128.068.243.095.367a9.049,9.049,0,0,1,.163,1.051c.008.094.008.189.014.282C108.488,259.283,108.493,259.579,108.482,259.877Z" transform="translate(-87.959 -248)"/></g><g transform="translate(13.998)"><path class="a" d="M146.413,26.95h-4.036a1.253,1.253,0,0,1-1.2-.842,26.731,26.731,0,0,0-1.441-3.479,1.256,1.256,0,0,1,.246-1.449l2.862-2.866a3.85,3.85,0,0,0,0-5.443l-5.457-5.448a3.85,3.85,0,0,0-5.443,0l-2.861,2.859a1.256,1.256,0,0,1-1.448.248,26.661,26.661,0,0,0-3.48-1.449,1.253,1.253,0,0,1-.847-1.2V3.85A3.85,3.85,0,0,0,119.463,0h-7.7a3.85,3.85,0,0,0-3.85,3.85V7.886a1.252,1.252,0,0,1-.842,1.2,26.745,26.745,0,0,0-3.479,1.448,1.254,1.254,0,0,1-1.449-.246L99.278,7.422a3.858,3.858,0,0,0-5.443,0l-5.446,5.446a3.85,3.85,0,0,0,0,5.444L92.6,22.528a1.283,1.283,0,0,0,1.817-1.812L90.2,16.5a1.283,1.283,0,0,1,0-1.815L95.65,9.24a1.283,1.283,0,0,1,1.815,0l2.867,2.862a3.815,3.815,0,0,0,4.41.724,24.28,24.28,0,0,1,3.145-1.308,3.818,3.818,0,0,0,2.594-3.632V3.85a1.283,1.283,0,0,1,1.283-1.283h7.7a1.283,1.283,0,0,1,1.283,1.283V7.886a3.816,3.816,0,0,0,2.594,3.631,24.2,24.2,0,0,1,3.147,1.309A3.825,3.825,0,0,0,130.9,12.1l2.867-2.861a1.283,1.283,0,0,1,1.815,0l5.446,5.448a1.283,1.283,0,0,1,0,1.813l-2.862,2.867a3.819,3.819,0,0,0-.724,4.41,24.282,24.282,0,0,1,1.308,3.145,3.816,3.816,0,0,0,3.632,2.594h4.036A1.283,1.283,0,0,1,147.7,30.8v7.7a1.283,1.283,0,0,1-1.283,1.283h-4.036a3.816,3.816,0,0,0-3.631,2.594,24.181,24.181,0,0,1-1.309,3.147,3.821,3.821,0,0,0,.725,4.408l2.862,2.867a1.283,1.283,0,0,1,0,1.815l-5.449,5.446a1.283,1.283,0,0,1-1.813,0l-4.217-4.208a1.283,1.283,0,1,0-1.843,1.786l.031.031,4.216,4.208a3.85,3.85,0,0,0,5.443,0l5.446-5.445a3.85,3.85,0,0,0,0-5.444l-2.858-2.863a1.258,1.258,0,0,1-.248-1.448,26.662,26.662,0,0,0,1.449-3.48,1.252,1.252,0,0,1,1.2-.847h4.036a3.85,3.85,0,0,0,3.85-3.85V30.8A3.85,3.85,0,0,0,146.413,26.95Z" transform="translate(-87.261)"/></g><g transform="translate(30.193 17.975)"><path class="a" d="M212.172,116.928a16.7,16.7,0,0,0-23.593,0,1.283,1.283,0,0,0,1.815,1.815,14.117,14.117,0,1,1,20.1,19.83l-.134.134a1.283,1.283,0,1,0,1.783,1.846l.031-.031A16.7,16.7,0,0,0,212.172,116.928Z" transform="translate(-188.219 -112.049)"/></g></svg>